# AST/ASF file generated using VICON BodyLanguage
# -----------------------------------------------
:version 1.10
:name VICON
:units
  mass 1.0
  length 0.45
  angle deg
:documentation
   .ast/.asf automatically generated from VICON data using
   VICON BodyBuilder and BodyLanguage model FoxedUp or BRILLIANT.MOD
:root
   order TX TY TZ RX RY RZ
   axis XYZ
   position 0 0 0  
   orientation 0 0 0 
:bonedata
  begin
     id 1 
     name lhipjoint
     direction 0.623529 -0.717805 0.309788 
     length 2.23224 
     axis 0 0 0  XYZ
  end
  begin
     id 2 
     name lfemur
     direction 0.34202 -0.939693 0  
     length 7.11402  
     axis 0 0 20  XYZ
    dof rx ry rz
    limits (-160.0 20.0)
           (-70.0 70.0)
           (-60.0 70.0)
  end
  begin
     id 3 
     name ltibia
     direction 0.34202 -0.939693 0   
     length 6.78496   
     axis 0 0 20   XYZ
    dof rx
    limits (-10.0 170.0)
  end
  begin
     id 4 
     name lfoot
     direction 0.125078 -0.343648 0.930732   
     length 1.84054   
     axis -90 7.62852e-016 20   XYZ
    dof rx rz
    limits (-45.0 90.0)
           (-70.0 20.0)
  end
  begin
     id 5 
     name ltoes
     direction 1.53565e-011 -4.21893e-011 1   
     length 0.916474   
     axis -90 7.62852e-016 20   XYZ
    dof rx
    limits (-90.0 20.0)
  end
  begin
     id 6 
     name rhipjoint
     direction -0.564688 -0.757748 0.327026   
     length 2.11457  
     axis 0 0 0  XYZ 
  end
  begin
     id 7 
     name rfemur
     direction -0.34202 -0.939693 0   
     length 7.14609   
     axis 0 0 -20   XYZ
    dof rx ry rz
    limits (-160.0 20.0)
           (-70.0 70.0)
           (-70.0 60.0)
  end
  begin
     id 8 
     name rtibia
     direction -0.34202 -0.939693 0   
     length 6.78101   
     axis 0 0 -20   XYZ
    dof rx
    limits (-10.0 170.0)
 end
 begin
     id 9 
     name rfoot
     direction -0.0992671 -0.272734 0.956955   
     length 1.96168  
     axis -90 -7.62852e-016 -20   XYZ
    dof rx rz
    limits (-45.0 90.0)
           (-20.0 70.0)
  end
  begin
     id 10 
     name rtoes
     direction -1.5356e-011 -4.21891e-011 1   
     length 0.982933   
     axis -90 -7.62852e-016 -20   XYZ
    dof rx
    limits (-90.0 20.0)
  end
  begin
     id 11 
     name lowerback
     direction -0.00596953 0.998668 0.0512524   
     length 1.87557   
     axis 0 0 0   XYZ
    dof rx ry rz
    limits (-20.0 45.0)
           (-30.0 30.0)
           (-30.0 30.0)
  end
  begin
     id 12 
     name upperback
     direction 0.00584879 0.999652 0.0257308   
     length 1.87883   
     axis 0 0 0   XYZ
    dof rx ry rz
    limits (-20.0 45.0)
           (-30.0 30.0)
           (-30.0 30.0)
  end
  begin
     id 13 
     name thorax
     direction 0.010104 0.999947 0.00178881   
     length 1.87779   
     axis 0 0 0   XYZ
    dof rx ry rz
    limits (-20.0 45.0)
           (-30.0 30.0)
           (-30.0 30.0)
  end
  begin
     id 14 
     name lowerneck
     direction 0.0120771 0.995934 -0.0892773   
     length 1.40897   
     axis 0 0 0   XYZ
    dof rx ry rz
    limits (-20.0 45.0)
           (-30.0 30.0)
           (-30.0 30.0)
  end
  begin
     id 15 
     name upperneck
     direction -0.030568 0.999465 -0.0116366   
     length 1.38661   
     axis 0 0 0   XYZ
    dof rx ry rz
    limits (-20.0 45.0)
           (-30.0 30.0)
           (-30.0 30.0)
  end
  begin
     id 16
     name head
     direction -0.0170715 0.999854 -0.00104426  
     length 1.47052  
     axis 0 0 0   XYZ
    dof rx ry rz
    limits (-20.0 45.0)
           (-30.0 30.0)
           (-30.0 30.0)
  end
  begin
     id 17 
     name lclavicle
     direction 0.977763 0.206143 0.038532  
     length 3.02424  
     axis 0 0 0   XYZ
    dof ry rz
    limits (-20.0 10.0)
           (0.0 20.0)
  end
  begin
     id 18 
     name lhumerus
     direction 1 -4.48965e-011 -2.62654e-027   
     length 4.68382   
     axis 180 -30 -90   XYZ
    dof rx ry rz
    limits (-60.0 90.0)
           (-90.0 90.0)
           (-90.0 90.0)
  end
  begin
     id 19
     name lradius
     direction 1 -4.48973e-011 -1.54954e-027   
     length 2.98124   
     axis 180 -30 -90   XYZ
    dof rx
    limits (-10.0 170.0)
  end
  begin
     id 20
     name lwrist
     direction 1 -4.48959e-011 7.20928e-028   
     length 1.49062   
     axis -5.52449e-016 90 90   XYZ
    dof ry
    limits (-180.0 0.0)
 end
  begin
     id 21 
     name lhand
     direction 1 -4.48971e-011 1.44186e-027   
     length 0.707595   
     axis -9.20027e-016 90 90   XYZ
    dof rx rz
    limits (-90.0 90.0)
           (-45.0 45.0)
  end
  begin
     id 22 
     name lfingers
     direction 1 -4.48985e-011 2.88371e-027   
     length 0.570481   
     axis -1.84005e-015 90 90   XYZ
    dof rx
    limits (0.0 90.0)
  end
  begin
     id 23
     name lthumb
     direction 0.707107 -6.34929e-011 0.707107   
     length 0.819101   
     axis -90 45 2.85299e-015   XYZ
    dof rx rz
    limits (-45.0 45.0)
           (-45.0 45.0)
  end
  begin
     id 24 
     name rclavicle
     direction -0.958661 0.284411 -0.00895327   
     length 3.11921  
     axis 0 0 0   XYZ 
    dof ry rz
    limits (-10.0 20.0)
           (-20.0 0.0)
  end
  begin
     id 25 
     name rhumerus
     direction -1 -4.48963e-011 -4.22193e-027  
     length 4.75876   
     axis 180 30 90   XYZ
    dof rx ry rz
    limits (-90.0 60.0)
           (-90.0 90.0)
           (-90.0 90.0)
  end
  begin
     id 26 
     name rradius
     direction -1 -4.48968e-011 -1.07616e-027   
     length 2.93293   
     axis 180 30 90   XYZ
    dof rx
    limits (-10.0 170.0)
  end
  begin
     id 27 
     name rwrist
     direction -1 -4.48965e-011 7.20928e-028   
     length 1.46647   
     axis -5.52449e-016 -90 -90   XYZ
    dof ry
    limits (-180.0 0.0)
  end
  begin
     id 28
     name rhand
     direction -1 -4.48971e-011 1.44186e-027   
     length 0.831748   
     axis -9.20027e-016 -90 -90   XYZ
    dof rx rz
    limits (-90.0 90.0)
           (-45.0 45.0)
  end
  begin
     id 29
     name rfingers
     direction -1 -4.48961e-011 2.88371e-027   
     length 0.670577   
     axis -1.84005e-015 -90 -90   XYZ
    dof rx
    limits (0.0 90.0)
  end
  begin
     id 30
     name rthumb
     direction -0.707107 -6.34929e-011 0.707107   
     length 0.962818   
     axis -90 -45 -2.85299e-015   XYZ
    dof rx rz
    limits (-45.0 45.0)
           (-45.0 45.0)
  end
:hierarchy
  begin
    root lhipjoint rhipjoint lowerback
    lhipjoint lfemur
    lfemur ltibia
    ltibia lfoot
    lfoot ltoes
    rhipjoint rfemur
    rfemur rtibia
    rtibia rfoot
    rfoot rtoes
    lowerback upperback
    upperback thorax
    thorax lowerneck lclavicle rclavicle
    lowerneck upperneck
    upperneck head
    lclavicle lhumerus
    lhumerus lradius
    lradius lwrist
    lwrist lhand lthumb
    lhand lfingers
    rclavicle rhumerus
    rhumerus rradius
    rradius rwrist
    rwrist rhand rthumb
    rhand rfingers
  end

#!OML:ASF E:\id_vita\Project 1\Capture day 1\Session 1\Female.ASF
:FULLY-SPECIFIED
:DEGREES
110
root 10.1819 24.7419 1.41883 -127.289 -84.6967 151.185
lowerback -7.49501 -0.200034 -5.29761
upperback -2.74342 0.0449925 -1.30436
thorax 1.35433 -0.00287255 1.63013
lowerneck -4.22556 -3.64474 -8.4979
upperneck -9.30246 -4.16323 13.3981
head -1.5279 -2.22773 5.46031
rclavicle -6.95746e-016 1.35174e-014
rhumerus 2.58768 0.0678976 -35.1789
rradius 108.134
rwrist -2.97933
rhand -31.6192 15.1435
rfingers 7.12502
rthumb -4.88105 -14.7803
lclavicle -6.95746e-016 1.35174e-014
lhumerus 26.8591 -0.290284 27.9193
lradius 84.8755
lwrist 5.61982
lhand -13.026 30.3233
lfingers 7.12502
lthumb 13.0681 59.8939
rfemur -68.2032 0.636615 15.9651
rtibia 75.3359
rfoot -20.7249 -18.6394
rtoes -21.7054
lfemur -66.2046 -8.93619 -19.1784
ltibia 75.215
lfoot -26.4633 18.3399
ltoes -14.9377
111
root 10.2408 24.7499 1.42585 -125.865 -84.9648 149.558
lowerback -7.33335 -0.265173 -5.10457
upperback -2.74163 -0.0645414 -1.20625
thorax 1.27467 -0.0546735 1.61443
lowerneck -4.28312 -3.65142 -8.65104
upperneck -9.41527 -4.16363 13.2709
head -1.55241 -2.22041 5.44806
rclavicle -2.78299e-015 4.96962e-015
rhumerus 3.74748 0.332997 -33.1743
rradius 107.11
rwrist -3.09959
rhand -31.4699 15.3311
rfingers 7.12502
rthumb -4.73686 -14.596
lclavicle -2.78299e-015 4.96962e-015
lhumerus 27.4505 -1.24396 25.4865
lradius 83.5676
lwrist 6.65622
lhand -13.2864 29.5559
lfingers 7.12502
lthumb 12.8171 59.1424
rfemur -68.0898 0.590185 15.9224
rtibia 75.2138
rfoot -20.4534 -18.6214
rtoes -21.5695
lfemur -66.4407 -9.69456 -18.8383
ltibia 75.0222
lfoot -25.5023 18.8048
ltoes -16.0452
112
root 10.3032 24.7574 1.43263 -125.075 -85.253 148.614
lowerback -6.92523 -0.289721 -4.77319
upperback -2.97476 -0.157992 -1.14878
thorax 0.813919 -0.0906106 1.48216
lowerneck -4.26358 -3.57069 -8.86472
upperneck -9.30068 -4.05139 13.3032
head -1.52887 -2.15402 5.494
rclavicle 7.70291e-015 -2.90226e-014
rhumerus 4.79522 0.715228 -31.384
rradius 106.069
rwrist -2.9669
rhand -31.291 15.2669
rfingers 7.12502
rthumb -4.56417 -14.6639
lclavicle 7.70291e-015 -2.90226e-014
lhumerus 28.1096 -2.35424 23.1869
lradius 82.3608
lwrist 7.76856
lhand -11.3547 29.185
lfingers 7.12502
lthumb 14.6788 58.6454
rfemur -67.9555 0.620293 15.881
rtibia 74.9758
rfoot -20.2528 -18.4849
rtoes -21.1946
lfemur -66.6353 -10.368 -18.3855
ltibia 74.7859
lfoot -24.8279 18.9318
ltoes -16.0491
113
root 10.3618 24.7723 1.43392 -125.426 -85.6753 148.685
lowerback -7.14001 -0.379271 -4.44941
upperback -2.66806 -0.265688 -0.96427
thorax 1.25764 -0.153533 1.48133
lowerneck -4.41588 -3.63783 -8.83228
upperneck -9.50052 -4.13907 13.01
head -1.56352 -2.19303 5.3974
rclavicle 2.03754e-015 1.72943e-014
rhumerus 6.51264 0.436284 -29.7291
rradius 104.822
rwrist -2.80396
rhand -31.3483 15.4831
rfingers 7.12502
rthumb -4.61946 -14.4465
lclavicle 2.03754e-015 1.72943e-014
lhumerus 28.9927 -2.75449 21.0813
lradius 81.1116
lwrist 8.52196
lhand -9.74398 28.9454
lfingers 7.12502
lthumb 16.2302 58.286
rfemur -67.619 0.744126 16.0637
rtibia 74.5956
rfoot -19.991 -18.4367
rtoes -20.813
lfemur -66.5431 -10.8218 -17.8074
ltibia 74.443
lfoot -24.3786 18.8211
ltoes -15.7364
114
root 10.4277 24.8097 1.44208 -122.947 -85.8382 146.034
lowerback -6.9683 -0.448303 -4.33221
upperback -2.74463 -0.378784 -0.938351
thorax 1.08968 -0.206474 1.4345
lowerneck -4.06522 -3.68575 -8.72809
upperneck -10.0042 -4.20976 12.8173
head -1.76953 -2.24835 5.33714
rclavicle -1.05853e-014 2.60408e-014
rhumerus 7.76509 0.462065 -28.1576
rradius 103.797
rwrist -2.88444
rhand -31.4397 15.6842
rfingers 7.12502
rthumb -4.70772 -14.2435
lclavicle -1.05853e-014 2.60408e-014
lhumerus 29.7865 -3.53749 19.0307
lradius 79.8341
lwrist 9.35188
lhand -8.62338 28.4759
lfingers 7.12502
lthumb 17.3089 57.7251
rfemur -67.4092 0.507129 15.9837
rtibia 74.0783
rfoot -19.7563 -17.9613
rtoes -20.1747
lfemur -66.3774 -11.3019 -17.6617
ltibia 73.8762
lfoot -23.9349 18.5882
ltoes -15.2993
115
root 10.4879 24.8505 1.43779 -120.217 -85.9614 143.059
lowerback -6.72118 -0.56517 -4.45946
upperback -2.89535 -0.549066 -0.878096
thorax 0.807653 -0.284322 1.55722
lowerneck -3.57602 -3.66856 -8.58626
upperneck -10.1995 -4.21069 12.6641
head -1.91534 -2.26496 5.28007
rclavicle -1.0635e-014 -1.92821e-014
rhumerus 9.04243 0.735023 -26.6917
rradius 102.831
rwrist -3.10464
rhand -31.6854 15.4949
rfingers 7.12502
rthumb -4.94492 -14.4274
lclavicle -1.0635e-014 -1.92821e-014
lhumerus 30.5674 -4.34153 17.1218
lradius 78.5663
lwrist 10.4469
lhand -7.4759 27.7385
lfingers 7.12502
lthumb 18.4131 56.8871
rfemur -67.0888 0.383025 15.9206
rtibia 73.3715
rfoot -19.4754 -17.4442
rtoes -19.037
lfemur -65.8669 -11.5858 -17.4948
ltibia 73.0598
lfoot -23.657 18.1612
ltoes -14.7421
116
root 10.5516 24.8935 1.43366 -117.167 -86.0356 139.814
lowerback -6.66066 -0.705352 -4.66474
upperback -2.95912 -0.731361 -0.810333
thorax 0.721474 -0.371691 1.72946
lowerneck -3.4014 -3.66781 -8.45242
upperneck -10.0242 -4.23569 12.4893
head -1.89906 -2.27545 5.20243
rclavicle 1.04362e-014 0
rhumerus 10.6193 0.923944 -25.3552
rradius 101.672
rwrist -3.50181
rhand -32.1146 15.5007
rfingers 7.12502
rthumb -5.35938 -14.4115
lclavicle 1.04362e-014 0
lhumerus 31.3877 -4.92733 15.4049
lradius 77.5132
lwrist 11.3524
lhand -6.49841 27.2588
lfingers 7.12502
lthumb 19.3532 56.3157
rfemur -66.7582 0.12311 15.935
rtibia 72.3976
rfoot -18.7852 -17.1732
rtoes -19.5915
lfemur -65.1289 -11.8085 -17.2652
ltibia 71.9994
lfoot -23.7996 17.4076
ltoes -12.8923
117
root 10.6205 24.97 1.43051 -116.977 -86.2657 139.398
lowerback -6.6633 -0.744092 -4.57586
upperback -2.93973 -0.786617 -0.723726
thorax 0.74695 -0.399458 1.76474
lowerneck -3.41262 -3.72081 -8.57224
upperneck -9.9056 -4.29753 12.7355
head -1.84455 -2.30614 5.29504
rclavicle -1.14301e-014 -7.95139e-016
rhumerus 12.0615 0.913869 -24.1168
rradius 100.504
rwrist -3.96639
rhand -32.477 15.6179
rfingers 7.12502
rthumb -5.70931 -14.2852
lclavicle -1.14301e-014 -7.95139e-016
lhumerus 32.4429 -5.42478 13.9367
lradius 76.4933
lwrist 11.9621
lhand -5.7352 27.1328
lfingers 7.12502
lthumb 20.0869 56.1144
rfemur -66.1512 -0.153893 16.3046
rtibia 71.0117
rfoot -17.5803 -16.9694
rtoes -21.8218
lfemur -64.3821 -11.7832 -16.9451
ltibia 70.6729
lfoot -23.6095 16.6583
ltoes -11.7938
118
root 10.6928 25.0881 1.42434 -117.551 -86.513 139.724
lowerback -6.41901 -0.74842 -4.48932
upperback -3.08156 -0.818338 -0.612213
thorax 0.467628 -0.408127 1.83275
lowerneck -2.80896 -3.63989 -8.56463
upperneck -9.82947 -4.22186 12.6185
head -1.9339 -2.27479 5.26893
rclavicle -4.96962e-017 -2.06736e-014
rhumerus 13.297 1.10791 -22.8579
rradius 99.3644
rwrist -4.37138
rhand -33.08 15.7062
rfingers 7.12502
rthumb -6.29143 -14.1804
lclavicle -4.96962e-017 -2.06736e-014
lhumerus 33.5507 -6.09094 12.695
lradius 75.3284
lwrist 12.5988
lhand -5.32966 27.0633
lfingers 7.12502
lthumb 20.4766 56.0035
rfemur -65.3291 -0.395835 16.7413
rtibia 69.3036
rfoot -16.2392 -16.5469
rtoes -24.0121
lfemur -63.7629 -11.5427 -16.8174
ltibia 69.1134
lfoot -22.7173 15.8125
ltoes -11.8457
119
root 10.7656 25.2307 1.41612 -117.09 -86.5641 139.091
lowerback -6.65433 -0.769 -4.67551
upperback -2.98383 -0.817098 -0.537616
thorax 0.70186 -0.410935 2.01061
lowerneck -2.76136 -3.61409 -8.44067
upperneck -9.66126 -4.20528 12.453
head -1.90264 -2.26183 5.19401
rclavicle 4.52235e-015 1.76918e-014
rhumerus 14.7035 0.965689 -21.6677
rradius 98.1233
rwrist -4.79604
rhand -33.5462 16.0729
rfingers 7.12502
rthumb -6.74152 -13.7997
lclavicle 4.52235e-015 1.76918e-014
lhumerus 34.7389 -6.28951 11.5735
lradius 74.1846
lwrist 13.1913
lhand -5.04304 26.7679
lfingers 7.12502
lthumb 20.7521 55.6782
rfemur -64.3535 -0.630547 16.8822
rtibia 67.3108
rfoot -15.4087 -15.5639
rtoes -24.2147
lfemur -63.3275 -11.0733 -17.0878
ltibia 67.4008
lfoot -21.5792 14.5928
ltoes -11.423
120
root 10.8381 25.3426 1.40912 -117.446 -86.5471 139.258
lowerback -6.85051 -0.794791 -4.8333
upperback -2.80483 -0.820492 -0.522799
thorax 0.99778 -0.418986 2.11054
lowerneck -3.68146 -3.82564 -8.17145
upperneck -8.77087 -4.5051 12.2554
head -1.47278 -2.3719 5.04523
rclavicle 1.2921e-015 3.67752e-014
rhumerus 16.1581 0.638501 -20.7976
rradius 96.9506
rwrist -5.07682
rhand -33.3381 15.9577
rfingers 7.12502
rthumb -6.54062 -13.9213
lclavicle 1.2921e-015 3.67752e-014
lhumerus 35.8877 -6.20757 10.5611
lradius 73.1076
lwrist 13.4615
lhand -4.78487 26.554
lfingers 7.12502
lthumb 21.0001 55.437
rfemur -63.3565 -0.869027 16.9266
rtibia 65.2929
rfoot -14.9281 -14.1838
rtoes -22.9071
lfemur -62.2656 -10.5328 -17.2099
ltibia 65.4931
lfoot -21.2578 13.3502
ltoes -9.38217
